<svg width="78" height="77" viewBox="0 0 78 77" fill="none" xmlns="http://www.w3.org/2000/svg">
<path d="M77.1361 32.2081C76.6646 32.2081 76.0988 32.1138 75.6273 32.1138C64.783 32.1138 53.9387 32.1138 43.0944 32.2081C42.34 32.3023 41.6799 32.7736 41.3027 33.4334C37.0593 40.6913 37.0593 40.6913 40.5483 48.4205C40.6426 48.5148 40.6426 48.7976 40.7369 48.7976C41.397 49.2689 42.1514 50.1172 42.9058 50.1172C46.772 50.2114 50.6382 50.2114 54.5988 50.2114H58.8422C58.465 50.9655 57.9935 51.6253 57.522 52.2851C52.2413 57.8464 45.7347 61.0512 38.0022 60.6741C29.7983 60.2971 24.6081 55.1032 20.0856 48.9861C17.3509 46.3522 16.8266 42.445 14.9406 41.9766C13.0547 41.5082 5.48198 38.0275 0.282895 36.1669C-1.22588 46.4411 4.05483 62.1823 18.1996 70.9483C32.5329 79.9971 50.9211 78.7718 64.0286 68.1206C75.9102 58.2234 79.965 42.388 77.1361 32.2081ZM28.8553 20.9913C31.8729 19.766 35.079 18.7291 38.2851 18.5406C46.9606 17.975 53.7501 21.7454 58.8422 29.0033L74.6843 22.9707C68.5549 8.36069 53.6558 -0.876642 37.4365 0.0659423C24.2347 0.725752 13.8619 6.66403 6.12939 17.6923C9.52414 19.0119 12.636 19.8602 15.4649 21.2741C20.0856 23.5363 24.329 22.8765 28.8553 20.9913ZM19.3312 27.4952C19.8027 27.6837 20.557 27.0239 21.1228 26.7411L20.9342 25.987C15.9364 24.1019 10.9386 22.1224 5.9408 20.2373C5.37501 20.0487 4.52632 20.52 3.86623 20.7085L3.96053 21.6511C9.05264 23.6306 14.2391 25.61 19.3312 27.4952ZM1.13158 33.8105C6.1294 35.7899 11.2215 37.7693 16.3136 39.6545L16.8794 39.1832C16.5022 38.5234 16.3136 37.5808 15.7478 37.3923C10.8443 35.4129 5.7522 33.5277 0.754387 31.6425L0 32.1138C0.471492 32.7736 0.660089 33.622 1.13158 33.8105ZM3.67764 25.987C8.01536 27.5894 12.4474 29.2861 16.7851 30.9827C18.1053 31.5483 18.7654 31.2655 18.7654 29.5688L3.11185 23.6306C1.98027 24.9502 2.26316 25.5157 3.67764 25.987ZM2.07456 29.7574C6.97808 31.7368 11.8816 33.622 16.7851 35.4129L17.3509 34.9416C16.9737 34.376 16.7851 33.3392 16.2193 33.1507C11.4101 31.2655 6.60089 29.4746 1.88597 27.5894L1.22588 27.8722C1.50877 28.532 1.60307 29.5688 2.07456 29.7574Z" fill="white" fill-opacity="0.2" style="mix-blend-mode:overlay"/>
</svg>
